<svg width="930" height="245" viewBox="0 0 930 245" fill="none" xmlns="http://www.w3.org/2000/svg">
<path d="M0.5 190V3.74998H72C84.8333 3.74998 96.1667 5.99998 106 10.5C116 15 123.833 21.6667 129.5 30.5C135.167 39.3333 138 50.25 138 63.25C138 75.9167 135.083 86.6667 129.25 95.5C123.583 104.333 115.75 111.083 105.75 115.75C95.9167 120.25 84.6667 122.5 72 122.5H39.25V190H0.5ZM39.25 88.75H72.25C77.75 88.75 82.5 87.6667 86.5 85.5C90.5 83.3333 93.5833 80.3333 95.75 76.5C98.0833 72.6667 99.25 68.25 99.25 63.25C99.25 58.0833 98.0833 53.5833 95.75 49.75C93.5833 45.9167 90.5 42.9167 86.5 40.75C82.5 38.5833 77.75 37.5 72.25 37.5H39.25V88.75ZM194.785 193C184.952 193 176.452 191.417 169.285 188.25C162.118 185.083 156.618 180.583 152.785 174.75C148.952 168.75 147.035 161.667 147.035 153.5C147.035 145.833 148.785 139.083 152.285 133.25C155.785 127.25 161.118 122.25 168.285 118.25C175.618 114.25 184.702 111.417 195.535 109.75L237.285 103V130.5L202.285 136.75C196.952 137.75 192.868 139.5 190.035 142C187.202 144.333 185.785 147.75 185.785 152.25C185.785 156.417 187.368 159.667 190.535 162C193.702 164.333 197.618 165.5 202.285 165.5C208.452 165.5 213.868 164.167 218.535 161.5C223.202 158.833 226.785 155.25 229.285 150.75C231.952 146.083 233.285 141 233.285 135.5V100C233.285 94.8333 231.202 90.5 227.035 87C223.035 83.5 217.535 81.75 210.535 81.75C203.868 81.75 197.952 83.5833 192.785 87.25C187.785 90.9167 184.118 95.75 181.785 101.75L151.785 87.5C154.452 79.8333 158.702 73.25 164.535 67.75C170.368 62.25 177.368 58 185.535 55C193.702 52 202.618 50.5 212.285 50.5C223.785 50.5 233.952 52.5833 242.785 56.75C251.618 60.9167 258.452 66.75 263.285 74.25C268.285 81.5833 270.785 90.1667 270.785 100V190H235.785V168L244.285 166.5C240.285 172.5 235.868 177.5 231.035 181.5C226.202 185.333 220.785 188.167 214.785 190C208.785 192 202.118 193 194.785 193ZM319.537 245C315.537 245 311.62 244.667 307.787 244C304.12 243.333 300.87 242.25 298.037 240.75V210C300.37 210.667 303.12 211.25 306.287 211.75C309.454 212.25 312.37 212.5 315.037 212.5C322.37 212.5 327.62 210.75 330.787 207.25C333.954 203.917 336.537 200.083 338.537 195.75L347.787 174.5L347.287 205.75L287.287 53.5H327.537L367.287 161.75H352.287L392.037 53.5H432.287L373.787 202.75C370.12 212.083 365.62 219.917 360.287 226.25C354.954 232.583 348.87 237.25 342.037 240.25C335.37 243.417 327.87 245 319.537 245ZM451.428 190V3.74998H490.178V156.25H568.928V190H451.428ZM585.396 190V53.5H622.896V190H585.396ZM585.396 41.25V3.74998H622.896V41.25H585.396ZM650.338 190V53.5H685.338V80.5L683.338 74.5C686.505 66.3333 691.588 60.3333 698.588 56.5C705.755 52.5 714.088 50.5 723.588 50.5C733.921 50.5 742.921 52.6667 750.588 57C758.421 61.3333 764.505 67.4167 768.838 75.25C773.171 82.9167 775.338 91.9167 775.338 102.25V190H737.838V110.25C737.838 104.917 736.755 100.333 734.588 96.5C732.588 92.6667 729.671 89.6667 725.838 87.5C722.171 85.3333 717.838 84.25 712.838 84.25C708.005 84.25 703.671 85.3333 699.838 87.5C696.005 89.6667 693.005 92.6667 690.838 96.5C688.838 100.333 687.838 104.917 687.838 110.25V190H650.338ZM799.996 190V0.749993H837.496V122L823.496 117.5L883.746 53.5H929.996L880.496 108.5L929.746 190H887.246L845.996 120.75L867.746 115.25L825.996 160.75L837.496 139V190H799.996Z" fill="black"/>
</svg>
