<svg width="608" height="608" viewBox="0 0 608 608" fill="none" xmlns="http://www.w3.org/2000/svg">
<g filter="url(#filter0_d_47_10)">
<rect x="4" width="600" height="600" rx="300" fill="black"/>
<path d="M217.176 437V186.68H313.272C330.52 186.68 345.752 189.704 358.968 195.752C372.408 201.8 382.936 210.76 390.552 222.632C398.168 234.504 401.976 249.176 401.976 266.648C401.976 283.672 398.056 298.12 390.216 309.992C382.6 321.864 372.072 330.936 358.632 337.208C345.416 343.256 330.296 346.28 313.272 346.28H269.256V437H217.176ZM269.256 300.92H313.608C321 300.92 327.384 299.464 332.76 296.552C338.136 293.64 342.28 289.608 345.192 284.456C348.328 279.304 349.896 273.368 349.896 266.648C349.896 259.704 348.328 253.656 345.192 248.504C342.28 243.352 338.136 239.32 332.76 236.408C327.384 233.496 321 232.04 313.608 232.04H269.256V300.92Z" fill="white"/>
</g>
<defs>
<filter id="filter0_d_47_10" x="0" y="0" width="608" height="608" filterUnits="userSpaceOnUse" color-interpolation-filters="sRGB">
<feFlood flood-opacity="0" result="BackgroundImageFix"/>
<feColorMatrix in="SourceAlpha" type="matrix" values="0 0 0 0 0 0 0 0 0 0 0 0 0 0 0 0 0 0 127 0" result="hardAlpha"/>
<feOffset dy="4"/>
<feGaussianBlur stdDeviation="2"/>
<feComposite in2="hardAlpha" operator="out"/>
<feColorMatrix type="matrix" values="0 0 0 0 0 0 0 0 0 0 0 0 0 0 0 0 0 0 0.25 0"/>
<feBlend mode="normal" in2="BackgroundImageFix" result="effect1_dropShadow_47_10"/>
<feBlend mode="normal" in="SourceGraphic" in2="effect1_dropShadow_47_10" result="shape"/>
</filter>
</defs>
</svg>
